<svg width="89" height="69" viewBox="0 0 89 69" fill="none" xmlns="http://www.w3.org/2000/svg">
<path d="M2.53912 9.59205C2.53912 4.29451 6.83363 0 12.1312 0H76.7365C82.034 0 86.3285 4.29451 86.3285 9.59205C86.3285 12.2408 84.1813 14.3881 81.5325 14.3881H7.33515C4.68638 14.3881 2.53912 12.2408 2.53912 9.59205Z" fill="#FAA916"/>
<path d="M86.3284 58.9629C86.3284 64.2605 82.0339 68.555 76.7364 68.555L12.1311 68.555C6.83355 68.555 2.53903 64.2605 2.53903 58.9629C2.53903 56.3142 4.68629 54.1669 7.33506 54.1669L81.5324 54.1669C84.1812 54.1669 86.3284 56.3142 86.3284 58.9629Z" fill="#FAA916"/>
<rect y="17.7735" width="88.4444" height="14.8113" rx="7.40563" fill="#96031A"/>
<rect y="31.3152" width="88.4444" height="14.8113" rx="5" fill="#039620"/>
<rect y="35.9702" width="88.4444" height="14.8113" rx="7.40563" fill="#96031A"/>
<path d="M18.0638 47.4458C16.8806 49.2643 14.2179 49.2643 13.0347 47.4458L5.55569 35.9514C4.25717 33.9557 5.68931 31.3152 8.07025 31.3152L23.0283 31.3152C25.4093 31.3152 26.8414 33.9557 25.5429 35.9514L18.0638 47.4458Z" fill="#039620"/>
</svg>
