<svg version="1.2" xmlns="http://www.w3.org/2000/svg" viewBox="0 0 500 500" width="500" height="500">
	<title>delete-svg</title>
	<style>
		.s0 { fill: #ff3131 } 
		.s1 { fill: none;stroke: #f4f3f2;stroke-linecap: round;stroke-linejoin: round;stroke-width: 19 } 
	</style>
	<g id="Layer 1">
		<path id="Forma 3 copy 2" fill-rule="evenodd" class="s0" d="m190.5 100.5h118c49.7 0 90 40.3 90 90v118c0 49.7-40.3 90-90 90h-118c-49.7 0-90-40.3-90-90v-118c0-49.7 40.3-90 90-90z"/>
		<path id="Forma 3" fill-rule="evenodd" class="s0" d="m192.1 112.9l115.1 0.1c43.6 0 79 35.4 78.9 79.1l-0.1 115.1c0 43.6-35.4 79-79.1 78.9l-115.1-0.1c-43.6 0-79-35.4-78.9-79.1l0.1-115.1c0-43.6 35.4-79 79.1-78.9z"/>
		<path fill-rule="evenodd" class="s1" d="m189.8 205.2v109.8c0 11 8.9 19.9 19.9 19.9h79.9c11 0 20-8.9 20-19.9v-109.8m-119.8 0h-10m10 0h19.9m99.9 0h9.9m-9.9 0h-20m-59.9 39.9v49.9m39.9-49.9v49.9m-59.9-89.8v-20c0-11 9-19.9 20-19.9h39.9c11.1 0 20 8.9 20 19.9v20m-79.9 0h79.9"/>
	</g>
</svg>