<svg width="89" height="69" viewBox="0 0 89 69" fill="none" xmlns="http://www.w3.org/2000/svg">
<path d="M2.82925 9.59205C2.82925 4.29451 7.12376 0 12.4213 0H77.0266C82.3241 0 86.6187 4.29451 86.6187 9.59205C86.6187 12.2408 84.4714 14.3881 81.8226 14.3881H7.62529C4.97651 14.3881 2.82925 12.2408 2.82925 9.59205Z" fill="#FAA916"/>
<path d="M86.6186 58.9629C86.6186 64.2605 82.3241 68.555 77.0265 68.555L12.4212 68.555C7.12368 68.555 2.82916 64.2605 2.82916 58.9629C2.82916 56.3141 4.97642 54.1669 7.62519 54.1669L81.8225 54.1669C84.4713 54.1669 86.6186 56.3142 86.6186 58.9629Z" fill="#FAA916"/>
<rect x="0.290131" y="17.7735" width="88.4444" height="14.8113" rx="7.40563" fill="#96031A"/>
<rect x="0.290131" y="31.3152" width="88.4444" height="14.8113" rx="5" fill="#039620"/>
<rect x="0.290131" y="35.9702" width="88.4444" height="14.8113" rx="7.40563" fill="#96031A"/>
<path d="M18.354 47.4458C17.1708 49.2643 14.5081 49.2643 13.3248 47.4458L5.84582 35.9514C4.5473 33.9557 5.97944 31.3152 8.36038 31.3152L23.3184 31.3152C25.6994 31.3152 27.1315 33.9557 25.833 35.9513L18.354 47.4458Z" fill="#039620"/>
</svg>
